HIERARCHY
ROOT Hips
{
	OFFSET 0.00000 0.00000 0.00000
	CHANNELS 6 Xposition Yposition Zposition Zrotation Yrotation Xrotation 
	JOINT LHipJoint
	{
		OFFSET 0 0 0
		CHANNELS 3 Zrotation Yrotation Xrotation
		JOINT LeftUpLeg
		{
			OFFSET 1.55766 -1.60504 1.11378
			CHANNELS 3 Zrotation Yrotation Xrotation
			JOINT LeftLeg
			{
				OFFSET 2.29047 -6.29302 0.00000
				CHANNELS 3 Zrotation Yrotation Xrotation
				JOINT LeftFoot
				{
					OFFSET 2.52265 -6.93093 0.00000
					CHANNELS 3 Zrotation Yrotation Xrotation
					JOINT LeftToeBase
					{
						OFFSET 0.17633 -0.48446 2.02656
						CHANNELS 3 Zrotation Yrotation Xrotation
						End Site
						{
							OFFSET 0.00000 -0.00000 1.04989
						}
					}
				}
			}
		}
	}
	JOINT RHipJoint
	{
		OFFSET 0 0 0
		CHANNELS 3 Zrotation Yrotation Xrotation
		JOINT RightUpLeg
		{
			OFFSET -1.48599 -1.60504 1.11378
			CHANNELS 3 Zrotation Yrotation Xrotation
			JOINT RightLeg
			{
				OFFSET -2.27280 -6.24448 0.00000
				CHANNELS 3 Zrotation Yrotation Xrotation
				JOINT RightFoot
				{
					OFFSET -2.50834 -6.89161 0.00000
					CHANNELS 3 Zrotation Yrotation Xrotation
					JOINT RightToeBase
					{
						OFFSET -0.26967 -0.74090 2.08741
						CHANNELS 3 Zrotation Yrotation Xrotation
						End Site
						{
							OFFSET -0.00000 -0.00000 1.10614
						}
					}
				}
			}
		}
	}
	JOINT LowerBack
	{
		OFFSET 0 0 0
		CHANNELS 3 Zrotation Yrotation Xrotation
		JOINT Spine
		{
			OFFSET 0.06481 2.02437 -0.08472
			CHANNELS 3 Zrotation Yrotation Xrotation
			JOINT Spine1
			{
				OFFSET 0.00015 1.96711 0.18069
				CHANNELS 3 Zrotation Yrotation Xrotation
				JOINT Neck
				{
					OFFSET 0 0 0
					CHANNELS 3 Zrotation Yrotation Xrotation
					JOINT Neck1
					{
						OFFSET -0.29961 1.68293 -0.13041
						CHANNELS 3 Zrotation Yrotation Xrotation
						JOINT Head
						{
							OFFSET 0.59697 1.61501 -0.14669
							CHANNELS 3 Zrotation Yrotation Xrotation
							End Site
							{
								OFFSET 0.22973 1.74906 -0.10148
							}
						}
					}
				}
				JOINT LeftShoulder
				{
					OFFSET 0 0 0
					CHANNELS 3 Zrotation Yrotation Xrotation
					JOINT LeftArm
					{
						OFFSET 3.37968 1.02893 0.31147
						CHANNELS 3 Zrotation Yrotation Xrotation
						JOINT LeftForeArm
						{
							OFFSET 5.19807 -0.00000 -0.00000
							CHANNELS 3 Zrotation Yrotation Xrotation
							JOINT LeftHand
							{
								OFFSET 3.09370 -0.00000 -0.00000
								CHANNELS 3 Zrotation Yrotation Xrotation
								JOINT LeftFingerBase
								{
									OFFSET 0 0 0
									CHANNELS 3 Zrotation Yrotation Xrotation
									JOINT LeftHandIndex1
									{
										OFFSET 0.67263 -0.00000 -0.00000
										CHANNELS 3 Zrotation Yrotation Xrotation
										End Site
										{
											OFFSET 0.54229 -0.00000 -0.00000
										}
									}
								}
								JOINT LThumb
								{
									OFFSET 0 0 0
									CHANNELS 3 Zrotation Yrotation Xrotation
									End Site
									{
										OFFSET 0.55057 -0.00000 0.55057
									}
								}
							}
						}
					}
				}
				JOINT RightShoulder
				{
					OFFSET 0 0 0
					CHANNELS 3 Zrotation Yrotation Xrotation
					JOINT RightArm
					{
						OFFSET -3.38254 0.96355 -0.16120
						CHANNELS 3 Zrotation Yrotation Xrotation
						JOINT RightForeArm
						{
							OFFSET -5.45222 -0.00000 -0.00000
							CHANNELS 3 Zrotation Yrotation Xrotation
							JOINT RightHand
							{
								OFFSET -3.01284 -0.00000 -0.00000
								CHANNELS 3 Zrotation Yrotation Xrotation
								JOINT RightFingerBase
								{
									OFFSET 0 0 0
									CHANNELS 3 Zrotation Yrotation Xrotation
									JOINT RightHandIndex1
									{
										OFFSET -0.62230 -0.00000 -0.00000
										CHANNELS 3 Zrotation Yrotation Xrotation
										End Site
										{
											OFFSET -0.50171 -0.00000 -0.00000
										}
									}
								}
								JOINT RThumb
								{
									OFFSET 0 0 0
									CHANNELS 3 Zrotation Yrotation Xrotation
									End Site
									{
										OFFSET -0.50937 -0.00000 0.50937
									}
								}
							}
						}
					}
				}
			}
		}
	}
}
MOTION
Frames: 6
Frame Time: .0083333
-4.8139 15.8056 33.3348 -131.6830 -77.2931 138.6340 0.0000 0.0000 0.0000 -1.2586 -10.5223 -17.2464 3.0846 10.8308 31.7114 1.0166 -0.9028 -18.7784 2.2751 -9.4169 -27.1084 0.0000 0.0000 0.0000 33.9039 1.5840 -13.3378 -1.4220 -7.5410 21.3284 -0.2883 15.4825 -13.7428 -0.1949 2.8427 -7.8410 7.3289 1.6906 -7.3375 2.3742 1.5687 -3.3373 -1.5264 0.6657 0.7829 -22.0879 -9.3752 23.3922 54.9401 -26.6888 -9.5564 32.6184 -20.5291 8.0698 -0.0000 -0.0000 0.0000 -85.6198 9.3414 47.1418 18.1930 -28.4035 -4.6407 -0.0000 0.0000 -38.7986 19.7086 -14.6937 -5.1918 -7.1250 0.0000 -0.0000 -5.3006 14.4619 3.8256 -0.0000 -0.0000 0.0000 87.0688 -1.9169 41.0258 -13.5624 22.1057 -2.6612 0.0000 0.0000 19.9831 -8.0344 2.5972 -0.3665 7.1250 -0.0000 -0.0000 14.1400 -27.2687 6.2689
-4.8126 15.8033 33.3266 -131.2320 -77.3039 138.1750 0.0000 0.0000 0.0000 -1.1649 -10.7983 -17.2174 3.1063 10.8652 31.8265 1.0158 -0.6914 -18.8338 2.2661 -9.3996 -27.0535 0.0000 0.0000 0.0000 34.0031 1.4374 -13.3761 -1.4209 -7.5382 21.3200 -0.2810 15.5779 -13.7281 -0.1911 2.8156 -7.7659 7.3644 1.6709 -7.3894 2.4189 1.5327 -3.3514 -1.5019 0.6466 0.7937 -22.0400 -9.4053 23.4895 54.9456 -26.9059 -9.3815 32.5556 -20.6706 8.2469 0.0000 -0.0000 0.0000 -85.6766 9.3536 47.0617 18.2124 -28.4283 -4.6499 -0.0000 0.0000 -39.0042 19.2658 -14.7769 -5.0944 -7.1250 0.0000 -0.0000 -5.6042 14.4206 4.0518 0.0000 -0.0000 0.0000 87.0730 -1.9196 40.7601 -13.5370 22.0689 -2.6517 0.0000 0.0000 19.9264 -7.7789 2.6343 -0.3597 7.1250 -0.0000 -0.0000 14.3270 -27.2313 6.3699
-4.8116 15.8012 33.3185 -130.8230 -77.3158 137.7640 0.0000 0.0000 0.0000 -1.0825 -11.0668 -17.1888 3.1261 10.8964 31.9314 1.0143 -0.4736 -18.8883 2.2568 -9.3817 -26.9967 0.0000 0.0000 0.0000 34.0947 1.3075 -13.4129 -1.4197 -7.5352 21.3110 -0.2759 15.6539 -13.7229 -0.1897 2.8052 -7.7369 7.3770 1.6444 -7.4450 2.4701 1.4886 -3.3682 -1.4586 0.6236 0.8025 -21.9980 -9.4330 23.5794 54.9451 -27.1127 -9.2094 32.4856 -20.8023 8.4163 -0.0000 -0.0000 0.0000 -85.7434 9.3780 46.9849 18.2441 -28.4686 -4.6650 -0.0000 0.0000 -39.2036 18.9221 -14.8276 -5.0136 -7.1250 0.0000 -0.0000 -5.8391 14.4028 4.2256 -0.0000 -0.0000 0.0000 87.0586 -1.9292 40.5557 -13.5251 22.0518 -2.6472 0.0000 0.0000 19.8520 -7.5261 2.6560 -0.3508 7.1250 -0.0000 -0.0000 14.5134 -27.2087 6.4660
-4.8107 15.7996 33.3108 -130.4590 -77.3289 137.4020 0.0000 0.0000 0.0000 -1.0127 -11.3273 -17.1579 3.1437 10.9241 32.0242 1.0124 -0.2499 -18.9420 2.2466 -9.3618 -26.9338 0.0000 0.0000 0.0000 34.1756 1.2029 -13.4436 -1.4184 -7.5320 21.3014 -0.2722 15.7078 -13.7180 -0.1880 2.7925 -7.7014 7.3757 1.6179 -7.5012 2.5226 1.4456 -3.3871 -1.4062 0.6011 0.8094 -21.9466 -9.4644 23.6700 54.9493 -27.3088 -9.0614 32.4136 -20.9266 8.5684 0.0000 0.0000 0.0000 -85.8097 9.4153 46.9633 18.2946 -28.5328 -4.6891 -0.0000 0.0000 -39.3790 18.7677 -14.8159 -4.9660 -7.1250 0.0000 -0.0000 -5.9434 14.4307 4.2984 0.0000 0.0000 0.0000 87.0266 -1.9445 40.4056 -13.5252 22.0519 -2.6472 0.0000 0.0000 19.7611 -7.2814 2.6764 -0.3418 7.1250 -0.0000 -0.0000 14.6938 -27.1874 6.5591
-4.8100 15.7981 33.3035 -130.1180 -77.3373 137.0670 0.0000 0.0000 0.0000 -0.9451 -11.5775 -17.1255 3.1590 10.9480 32.1048 1.0101 -0.0292 -18.9950 2.2347 -9.3387 -26.8605 0.0000 0.0000 0.0000 34.2553 1.1102 -13.4739 -1.4171 -7.5285 21.2909 -0.2686 15.7538 -13.7113 -0.1862 2.7794 -7.6653 7.3731 1.5956 -7.5577 2.5771 1.4081 -3.4085 -1.3506 0.5812 0.8143 -21.8962 -9.4983 23.7702 54.9583 -27.4945 -8.9456 32.3501 -21.0464 8.7025 -0.0000 0.0000 0.0000 -85.8771 9.4653 47.0042 18.3650 -28.6220 -4.7228 -0.0000 0.0000 -39.5312 18.7958 -14.7375 -4.9484 -7.1250 0.0000 -0.0000 -5.9217 14.5094 4.2725 -0.0000 0.0000 0.0000 86.9724 -1.9657 40.3060 -13.5363 22.0679 -2.6514 0.0000 0.0000 19.6495 -7.0570 2.6967 -0.3337 7.1250 -0.0000 -0.0000 14.8590 -27.1665 6.6453
-4.8095 15.7969 33.2965 -129.8120 -77.3435 136.7690 0.0000 0.0000 0.0000 -0.8842 -11.8135 -17.0894 3.1716 10.9678 32.1714 1.0075 0.1912 -19.0468 2.2245 -9.3188 -26.7978 0.0000 0.0000 0.0000 34.3283 1.0398 -13.4983 -1.4157 -7.5251 21.2807 -0.2651 15.7885 -13.6983 -0.1824 2.7506 -7.5852 7.3717 1.5836 -7.6143 2.6264 1.3843 -3.4318 -1.2999 0.5681 0.8183 -21.8337 -9.5391 23.8887 54.9779 -27.6672 -8.8735 32.2950 -21.1609 8.8085 -0.0000 -0.0000 0.0000 -85.9325 9.5221 47.0971 18.4383 -28.7147 -4.7579 -0.0000 0.0000 -39.6512 18.9037 -14.6648 -4.9549 -7.1250 0.0000 -0.0000 -5.8461 14.5745 4.2093 -0.0000 -0.0000 0.0000 86.9074 -1.9996 40.2644 -13.5607 22.1032 -2.6606 0.0000 0.0000 19.4935 -6.8690 2.7077 -0.3261 7.1250 -0.0000 -0.0000 14.9979 -27.1546 6.7160
